<svg width="541" height="102" viewBox="0 0 541 102" xmlns="http://www.w3.org/2000/svg">
    <path d="M93.321 16.68c18.98.165 36.806 12.54 36.806 34.156v46.037c0 1.485-.99 2.475-2.476 2.475h-6.106c-7.293 0-13.204-5.91-13.204-13.2V53.42c0-3.924-.99-16.5-16.395-16.5s-16.45 12.925-16.45 16.5v43.727a2.2 2.2 0 0 1-2.2 2.2H56.831a2.2 2.2 0 0 1-2.2-2.2V53.42c0-3.575-1.046-16.5-16.45-16.5-15.405 0-16.396 12.576-16.396 16.5v43.727a2.2 2.2 0 0 1-2.2 2.2H2.476C.99 99.348 0 98.358 0 96.873V50.836c0-21.615 17.825-33.99 36.806-34.156 12.584-.11 22.003 3.662 28.258 11.314C71.318 20.342 80.737 16.57 93.32 16.68zm88.21 84.537c-23.267 0-41.914-18.631-41.914-42.043 0-23.578 18.647-42.209 41.914-42.209 23.267 0 41.914 18.631 41.914 42.209 0 23.412-18.647 42.043-41.914 42.043zm0-20.128c11.531 0 20.92-9.228 20.92-21.915 0-12.853-9.389-22.08-20.92-22.08-11.696 0-20.921 9.227-20.921 22.08 0 12.687 9.225 21.915 20.92 21.915zM296.488 21.02v13.522c0 1.154-.33 2.309-1.154 3.133L254.42 81.54h39.594c1.485 0 2.474.99 2.474 2.473v12.862c0 1.484-.99 2.474-2.474 2.474h-63.35c-1.485 0-2.474-.99-2.474-2.474V83.353c0-1.155.33-2.309 1.154-3.134l41.079-43.863h-39.759c-1.485 0-2.474-.99-2.474-2.473V21.02c0-1.484.99-2.473 2.474-2.473h63.35c1.485 0 2.474.99 2.474 2.473zm85.553 35.886c0 6.436-.825 9.737-5.776 9.737h-51.828c2.311 10.398 10.564 16.34 23.108 16.34 6.437 0 11.554-1.651 17.166-5.612 1.485-.99 2.476-.99 3.63.165l7.263 7.097c1.156 1.155 1.156 2.31-.165 3.63-7.757 7.758-18.32 12.379-30.04 12.379-25.253 0-42.584-18.65-42.584-41.92 0-23.272 17.33-41.757 40.769-41.757 23.437 0 38.457 18.485 38.457 39.94zm-38.205-21.25c-9.88 0-17.62 5.937-19.597 16.822h38.535c-1.647-10.885-9.387-16.822-18.938-16.822zm51.891-21.564L412.455.252a1.095 1.095 0 0 1 1.795.848v96.049c0 1.214-.982 2.199-2.193 2.199H394.73a2.196 2.196 0 0 1-2.193-2.2V20.878a8.806 8.806 0 0 1 3.19-6.785zm32.927 0L445.382.252a1.095 1.095 0 0 1 1.795.848v96.049c0 1.214-.982 2.199-2.193 2.199h-17.326a2.196 2.196 0 0 1-2.193-2.2V20.878a8.806 8.806 0 0 1 3.19-6.785zm69.64 87.125c-23.268 0-41.915-18.631-41.915-42.043 0-23.578 18.647-42.209 41.914-42.209 23.267 0 41.914 18.631 41.914 42.209 0 23.412-18.647 42.043-41.914 42.043zm0-20.128c11.53 0 20.92-9.228 20.92-21.915 0-12.853-9.39-22.08-20.92-22.08-11.697 0-20.922 9.227-20.922 22.08 0 12.687 9.225 21.915 20.921 21.915z" fill="#CCCCCC" fill-rule="evenodd"/>
</svg>
