<?xml version="1.0" encoding="UTF-8" standalone="no"?>
<!-- Created with Inkscape (http://www.inkscape.org/) -->

<svg xmlns:dc="http://purl.org/dc/elements/1.1/" xmlns:cc="http://creativecommons.org/ns#" xmlns:rdf="http://www.w3.org/1999/02/22-rdf-syntax-ns#" xmlns:svg="http://www.w3.org/2000/svg" xmlns="http://www.w3.org/2000/svg" version="1.1" width="505" height="120" viewBox="0 0 505 120" id="svg2">
  <defs id="defs4" />
  <metadata id="metadata7">
    <rdf:RDF>
      <cc:Work rdf:about="">
        <dc:format>image/svg+xml</dc:format>
        <dc:type rdf:resource="http://purl.org/dc/dcmitype/StillImage" />
        <dc:title></dc:title>
      </cc:Work>
    </rdf:RDF>
  </metadata>
  <g transform="translate(-0.05076027,-751.99408)" id="layer1">
    <g id="g3337">
      <path d="m 77.55076,864.49408 -21.5625,0 0,-48.75 0,-4.375 c -5.1e-5,-4.99994 -1.510466,-8.64577 -4.53125,-10.9375 -3.020876,-2.2916 -6.40629,-3.43743 -10.15625,-3.4375 -3.750032,7e-5 -7.083362,1.1459 -10,3.4375 -2.91669,2.29173 -4.375022,5.93756 -4.375,10.9375 l 0,53.125 -21.8749997,0 0,-48.75 c 0,-14.1666 3.6979129,-23.64576 11.0937497,-28.4375 7.395815,-4.79159 15.57289,-7.39575 24.53125,-7.8125 4.791627,8e-5 9.479122,0.52092 14.0625,1.5625 4.583279,1.04175 8.749942,3.12508 12.5,6.25 3.124935,-2.70825 6.822848,-4.63534 11.09375,-5.78125 4.270756,-1.14575 8.697835,-1.82283 13.28125,-2.03125 9.16657,8e-5 17.60406,2.39592 25.3125,7.1875 7.70821,4.79174 11.56238,14.47923 11.5625,29.0625 l 0,48.75 -10.9375,0 c -3.12511,0 -5.67719,-0.98958 -7.65625,-2.96875 -1.97927,-1.97916 -2.96885,-4.53124 -2.96875,-7.65625 l 0,0 0,-42.5 c -1e-4,-4.99994 -1.51052,-8.64577 -4.53125,-10.9375 -3.020927,-2.2916 -6.406341,-3.43743 -10.15625,-3.4375 -3.750083,7e-5 -7.135496,1.1459 -10.15625,3.4375 -3.020907,2.29173 -4.531322,5.93756 -4.53125,10.9375 l 0,4.375 z" id="path2996" style="font-size:160px;font-style:normal;font-variant:normal;font-weight:bold;font-stretch:normal;line-height:125%;letter-spacing:0px;word-spacing:0px;fill:#CCCCCC;fill-opacity:1;stroke:none;font-family:Harabara;-inkscape-font-specification:Harabara Bold" />
      <path d="m 146.33826,856.99408 c -4.37501,-3.74999 -7.5,-8.80207 -9.375,-15.15625 -1.875,-6.35414 -2.8125,-12.96871 -2.8125,-19.84375 0,-5.62495 0.78125,-11.24995 2.34375,-16.875 1.5625,-5.62494 4.01041,-10.31243 7.34375,-14.0625 5.41665,-6.24992 12.39581,-9.94783 20.9375,-11.09375 8.54163,-1.14575 16.24996,-0.46867 23.125,2.03125 7.91661,3.12508 13.74993,8.54174 17.5,16.25 3.54159,6.87506 5.31243,14.89588 5.3125,24.0625 -7e-5,6.6667 -0.72924,12.39586 -2.1875,17.1875 -1.4584,4.79169 -3.3334,8.85418 -5.625,12.1875 -5.00006,6.87501 -11.35422,11.14583 -19.0625,12.8125 -6.87504,1.875 -13.80212,2.03125 -20.78125,0.46875 -6.97919,-1.5625 -12.5521,-4.21875 -16.71875,-7.96875 z m 15,-55 c -4.37502,4.79172 -6.35419,11.92713 -5.9375,21.40625 0.41665,9.4792 2.18748,16.09377 5.3125,19.84375 1.24997,1.66669 3.43747,3.07293 6.5625,4.21875 3.12497,1.14585 6.30205,1.25002 9.53125,0.3125 3.22912,-0.93748 6.0937,-3.28123 8.59375,-7.03125 2.49995,-3.74997 3.85411,-9.79163 4.0625,-18.125 -5e-5,-7.49995 -1.19797,-13.12495 -3.59375,-16.875 -2.39588,-3.74994 -5.15629,-6.14577 -8.28125,-7.1875 -3.12504,-1.0416 -6.25004,-1.09368 -9.375,-0.15625 -3.12503,0.93756 -5.41669,2.13548 -6.875,3.59375 z" id="path2998" style="font-size:160px;font-style:normal;font-variant:normal;font-weight:bold;font-stretch:normal;line-height:125%;letter-spacing:0px;word-spacing:0px;fill:#CCCCCC;fill-opacity:1;stroke:none;font-family:Harabara;-inkscape-font-specification:Harabara Bold" />
      <path d="m 214.55076,864.49408 0,-16.5625 44.6875,-49.375 -31.5625,0 c -2.91668,7e-5 -5.41667,-0.98952 -7.5,-2.96875 -2.08334,-1.9791 -3.125,-4.42701 -3.125,-7.34375 l 0,-6.875 68.125,0 0,17.8125 -44.0625,47.1875 45.625,0 0,18.125 z" id="path3000" style="font-size:160px;font-style:normal;font-variant:normal;font-weight:bold;font-stretch:normal;line-height:125%;letter-spacing:0px;word-spacing:0px;fill:#CCCCCC;fill-opacity:1;stroke:none;font-family:Harabara;-inkscape-font-specification:Harabara Bold" />
      <path d="m 347.98826,838.86908 15.625,0 c -2.29174,8.75002 -6.66673,15.41668 -13.125,20 -6.45839,4.79167 -14.58338,7.1875 -24.375,7.1875 -11.87502,0 -21.14585,-3.85416 -27.8125,-11.5625 -6.66667,-7.49998 -10,-18.22914 -10,-32.1875 0,-13.33328 3.22917,-23.74993 9.6875,-31.25 6.66665,-7.70825 15.93748,-11.56242 27.8125,-11.5625 12.49995,8e-5 22.18744,3.75008 29.0625,11.25 6.6666,7.7084 9.99993,18.43755 10,32.1875 -7e-5,0.83337 -7e-5,1.56254 0,2.1875 -7e-5,0.62504 -7e-5,1.0417 0,1.25 -7e-5,1.0417 -0.10424,1.77087 -0.3125,2.1875 l -54.0625,0 c 0.20831,6.45836 1.77081,11.25002 4.6875,14.375 2.70831,3.33335 6.7708,5.00002 12.1875,5 3.54163,2e-5 6.56246,-0.72915 9.0625,-2.1875 0.62495,-0.20831 1.19787,-0.5729 1.71875,-1.09375 0.52079,-0.52081 1.0937,-1.09373 1.71875,-1.71875 0.20828,-0.62498 0.98953,-1.45831 2.34375,-2.5 1.35411,-1.04164 3.28119,-1.56247 5.78125,-1.5625 z m -37.5,-24.375 31.875,0 c -0.41672,-5.62494 -1.87505,-9.79161 -4.375,-12.5 -2.70838,-2.9166 -6.56254,-4.37493 -11.5625,-4.375 -4.58336,7e-5 -8.33336,1.4584 -11.25,4.375 -2.91669,2.91673 -4.47919,7.08339 -4.6875,12.5 z" id="path3002" style="font-size:160px;font-style:normal;font-variant:normal;font-weight:bold;font-stretch:normal;line-height:125%;letter-spacing:0px;word-spacing:0px;fill:#CCCCCC;fill-opacity:1;stroke:none;font-family:Harabara;-inkscape-font-specification:Harabara Bold" />
      <path d="m 370.23776,756.99408 11.25,0 c 2.91665,1.1e-4 5.41665,0.98969 7.5,2.96875 2.08331,1.97927 3.12498,4.42718 3.125,7.34375 l 0,97.1875 -21.875,0 z" id="path3004" style="font-size:160px;font-style:normal;font-variant:normal;font-weight:bold;font-stretch:normal;line-height:125%;letter-spacing:0px;word-spacing:0px;fill:#CCCCCC;fill-opacity:1;stroke:none;font-family:Harabara;-inkscape-font-specification:Harabara Bold" />
      <path d="m 397.30076,756.99408 11.25,0 c 2.91665,1.1e-4 5.41665,0.98969 7.5,2.96875 2.08331,1.97927 3.12498,4.42718 3.125,7.34375 l 0,97.1875 -21.875,0 z" id="path3006" style="font-size:40px;font-style:normal;font-weight:normal;line-height:125%;letter-spacing:2px;word-spacing:0px;fill:#CCCCCC;fill-opacity:1;stroke:none;font-family:Sans" />
      <path d="m 435.73826,856.99408 c -4.37501,-3.74999 -7.5,-8.80207 -9.375,-15.15625 -1.875,-6.35414 -2.8125,-12.96871 -2.8125,-19.84375 0,-5.62495 0.78125,-11.24995 2.34375,-16.875 1.5625,-5.62494 4.01041,-10.31243 7.34375,-14.0625 5.41665,-6.24992 12.39581,-9.94783 20.9375,-11.09375 8.54163,-1.14575 16.24996,-0.46867 23.125,2.03125 7.91661,3.12508 13.74993,8.54174 17.5,16.25 3.54159,6.87506 5.31243,14.89588 5.3125,24.0625 -7e-5,6.6667 -0.72924,12.39586 -2.1875,17.1875 -1.4584,4.79169 -3.3334,8.85418 -5.625,12.1875 -5.00006,6.87501 -11.35422,11.14583 -19.0625,12.8125 -6.87504,1.875 -13.80212,2.03125 -20.78125,0.46875 -6.97919,-1.5625 -12.5521,-4.21875 -16.71875,-7.96875 z m 15,-55 c -4.37502,4.79172 -6.35419,11.92713 -5.9375,21.40625 0.41665,9.4792 2.18748,16.09377 5.3125,19.84375 1.24997,1.66669 3.43747,3.07293 6.5625,4.21875 3.12497,1.14585 6.30205,1.25002 9.53125,0.3125 3.22912,-0.93748 6.0937,-3.28123 8.59375,-7.03125 2.49995,-3.74997 3.85411,-9.79163 4.0625,-18.125 -5e-5,-7.49995 -1.19797,-13.12495 -3.59375,-16.875 -2.39588,-3.74994 -5.15629,-6.14577 -8.28125,-7.1875 -3.12504,-1.0416 -6.25004,-1.09368 -9.375,-0.15625 -3.12503,0.93756 -5.41669,2.13548 -6.875,3.59375 z" id="path3008" style="font-size:160px;font-style:normal;font-variant:normal;font-weight:bold;font-stretch:normal;line-height:125%;letter-spacing:0px;word-spacing:0px;fill:#CCCCCC;fill-opacity:1;stroke:none;font-family:Harabara;-inkscape-font-specification:Harabara Bold" />
    </g>
  </g>
</svg>
